<?xml version="1.0" encoding="UTF-8"?>
<svg id="_레이어_2" data-name="레이어 2" xmlns="http://www.w3.org/2000/svg" viewBox="0 0 59.79 37.28">
  <defs>
    <style>
      .cls-1 {
        fill: #ff6a00;
      }
    </style>
  </defs>
  <g id="_레이어_1-2" data-name="레이어 1">
    <rect class="cls-1" x="19.94" y="16.3" width="19.92" height="4.49"/>
    <path class="cls-1" d="M49.84,0h-13.18l3.18,4.5,9.61,3c1.74.55,2.92,2.17,2.9,4v14.34h0c.01,1.82-1.16,3.44-2.9,4l-9.61,2.94-3.18,4.5h13.18c5.49,0,9.94-4.44,9.95-9.93,0-.02,0-.05,0-.07V10c0-5.5-4.45-9.97-9.95-10Z"/>
    <path class="cls-1" d="M10,0h13.14l-3.14,4.5-9.61,3c-1.74.55-2.92,2.17-2.91,4v14.34h0c0,1.83,1.17,3.45,2.91,4l9.61,2.94,3.18,4.5h-13.18c-5.52,0-10-4.48-10-10V10C0,4.48,4.48,0,10,0Z"/>
  </g>
</svg>