<svg viewBox="0 0 533 533" fill="none" xmlns="http://www.w3.org/2000/svg"><path fill="#fff" d="M0 0h533v533H0z"/><path fill-rule="evenodd" clip-rule="evenodd" d="M269.588 497.912c-32.388 0-63.062-6.484-91.069-18.117-41.915-17.544-77.733-46.911-103.072-83.907-25.34-36.995-40.01-81.427-40.01-129.483 0-32.038 6.478-62.358 18.48-90.2 17.72-41.572 47.441-76.852 84.783-101.833s82.305-39.474 130.888-39.474V0C232.437 0 197 7.437 164.611 20.977 116.218 41.19 75.066 74.944 46.106 117.47 16.956 159.995 0 211.293 0 266.405c0 36.804 7.62 71.893 21.148 103.739 20.386 47.865 54.68 88.484 97.547 117.279C161.753 516.219 213.575 533 269.398 533v-35.088z" fill="#f05a28"/><path fill-rule="evenodd" clip-rule="evenodd" d="M149.56 408.474c-21.91-18.306-38.295-40.427-49.345-64.646s-16.766-50.344-16.766-76.661c0-20.976 3.62-41.953 10.669-61.976 7.24-20.024 17.909-39.093 32.579-56.447 18.29-21.739 40.581-38.139 64.777-49.2 24.197-11.06 50.679-16.59 76.971-16.59 20.958 0 42.106 3.623 62.11 10.679 20.196 7.246 39.248 17.925 56.585 32.418l22.673-26.888C389.236 82 366.374 69.033 342.368 60.642c-24.006-8.582-48.964-12.777-73.923-12.777a221.5 221.5 0 0 0-91.641 19.833c-28.959 13.158-55.442 32.8-77.161 58.544-17.338 20.595-30.103 43.288-38.676 67.125s-12.765 48.819-12.765 73.8c0 31.275 6.668 62.549 19.814 91.345s32.961 55.302 58.872 76.851z" fill="#f05a28"/><path fill-rule="evenodd" clip-rule="evenodd" d="M203.858 385.781c-23.053-12.204-41.152-29.939-53.536-50.725s-18.862-44.814-18.862-69.033c0-21.358 4.954-42.907 15.813-62.93 12.194-23.074 30.103-41 51.06-53.205 20.958-12.395 44.963-18.879 69.35-18.879 21.339 0 43.058 4.958 63.254 15.638l16.384-31.084c-25.339-13.349-52.774-19.833-79.828-19.642-30.674 0-60.967 8.2-87.259 23.646a170.3 170.3 0 0 0-64.206 67.126c-13.337 25.363-19.815 52.633-19.815 79.33 0 30.512 8.193 60.642 23.816 86.768 15.623 26.316 38.485 48.628 67.445 63.883z" fill="#f05a28"/><path fill-rule="evenodd" clip-rule="evenodd" d="M269.779 352.219a85.9 85.9 0 0 1-33.722-6.865c-15.623-6.484-28.769-17.545-38.105-31.466s-14.86-30.511-14.86-48.437a86.1 86.1 0 0 1 6.858-33.753c6.478-15.447 17.528-28.796 31.436-38.14s30.484-14.874 48.393-14.874v-35.089c-16.766 0-32.77 3.433-47.44 9.535-21.91 9.344-40.391 24.6-53.537 44.051-13.336 19.642-20.957 43.289-20.957 68.461 0 16.781 3.429 32.8 9.526 47.484 9.336 21.93 24.768 40.428 44.201 53.586 19.433 12.967 42.868 20.595 68.207 20.595z" fill="#f05a28"/><path fill-rule="evenodd" clip-rule="evenodd" d="M298.357 237.8c-4.001-4.195-8.383-7.628-12.765-10.107s-8.954-3.814-13.717-3.814c-6.478 0-12.003 1.144-17.147 3.433-4.954 2.288-9.336 5.339-12.956 9.344-3.62 3.814-6.287 8.391-8.192 13.349s-2.667 10.297-2.667 15.637.952 10.679 2.667 15.637c1.905 4.958 4.572 9.535 8.192 13.349s7.812 7.056 12.956 9.344q7.43 3.433 17.147 3.433c5.334 0 10.478-1.145 15.051-3.242a34.1 34.1 0 0 0 11.812-9.726l23.244 24.982a52 52 0 0 1-12.003 8.962c-4.572 2.48-9.145 4.577-13.717 6.103s-9.146 2.67-13.337 3.242c-4.191.762-8.002.953-11.05.953-10.479 0-20.386-1.716-29.531-5.149q-14.004-5.148-24.006-14.874c-6.859-6.293-12.193-14.112-16.194-23.075s-5.906-19.069-5.906-29.939c0-11.061 1.905-20.977 5.906-29.94 4.001-8.962 9.335-16.59 16.194-23.074q10.289-9.44 24.006-14.874c9.335-3.433 19.243-5.149 29.531-5.149q13.432 0 26.863 5.149c8.955 3.432 16.957 8.772 23.625 16.018z" fill="#000"/></svg>