<svg viewBox="0 0 62 62" fill="none" xmlns="http://www.w3.org/2000/svg"><g fill="#000"><path d="M38.01 50.194c-.884 1.442-2.758 1.712-3.966.57l-5.37-5.074c-1.208-1.141-1.19-3.163.04-4.278l5.412-4.914c6.017-5.463 13.943-7.592 21.487-5.773l4.072.983a.87.87 0 0 1 .392.214c.59.557.26 1.597-.525 1.656l-.087.006c-7.45.557-14.284 4.907-18.49 11.77z"/><path d="M15.296 47.091c-1.123 1.246-3.02 1.131-4.005-.242L.547 31.871c-.98-1.366-.602-3.344.8-4.189l21.425-12.907c6.831-4.117 14.958-4.552 22.037-1.182l15.54 7.403c.24.114.45.291.61.515.856 1.192-.06 2.895-1.453 2.704l-9.258-1.268c-7.393-1.013-14.834 1.838-20.131 7.712z"/></g></svg>