<svg xmlns="http://www.w3.org/2000/svg" viewBox="0 0 20 20">
  <rect width="20" height="20" fill="#000"/>

  <g transform="translate(1.75 1.75)">
    <path
      d="M11.58 9.67c.37 0 .66.3.66.67s-.3.66-.66.66h-2.5c-.37 0-.67-.3-.67-.66 0-.37.3-.67.66-.67h2.5ZM4.99 5.6c.31-.19.72-.09.91.23l1.25 2.08c.13.21.13.47 0 .69L5.9 10.68c-.21.3-.62.38-.93.18a.66.66 0 0 1-.21-.86L5.8 8.26 4.76 6.52a.66.66 0 0 1 .23-.91"
      fill="#fff"
    />
    <path
      d="M7.25 0c1.07 0 2.11.38 2.92 1.07.26-.05.53-.07.81-.07 2.5 0 4.52 2.03 4.52 4.53 0 .27-.02.54-.07.8a4.53 4.53 0 0 1-.53 6.38c-.41.35-.88.62-1.39.8-.64 1.8-2.35 3-4.26 2.99a4.5 4.5 0 0 1-2.92-1.07 4.524 4.524 0 0 1-5.32-4.46c0-.27.02-.54.07-.8C.43 9.42.06 8.47 0 7.48v-.23c0-1.91 1.2-3.61 2.99-4.26A4.535 4.535 0 0 1 7.25 0m0 1.33A3.2 3.2 0 0 0 4.16 3.7c-.06.23-.24.41-.47.47-1.7.46-2.71 2.21-2.25 3.92.15.54.43 1.03.82 1.43.17.17.23.41.17.64a3.2 3.2 0 0 0 3.08 4.03c.28 0 .56-.04.83-.11l.09-.02c.2-.03.41.04.55.19a3.193 3.193 0 0 0 4.52 0c.4-.4.68-.89.82-1.43l.03-.08c.08-.19.24-.33.44-.39a3.2 3.2 0 0 0 2.37-3.09c0-.88-.36-1.68-.94-2.26a.66.66 0 0 1-.17-.64 3.199 3.199 0 0 0-3.92-3.92.66.66 0 0 1-.64-.17c-.56-.56-1.3-.89-2.09-.93h-.16Z"
      fill="#fff"
    />
  </g>
</svg>
