<svg xmlns="http://www.w3.org/2000/svg" viewBox="0 0 41.7 41.7"><path fill="#0b0b0c" d="M0 0h41.7v41.7H0z"/><path d="M27.605 13.24c2.05 2.07 3.18 4.87 3.12 7.78-.09 5.89-5.05 10.68-11.04 10.68h-8.43a.18.18 0 0 1-.18-.18c0-.05.02-.09.05-.13l4.1-4.12c.07-.07.16-.11.26-.11h4.27c3.44 0 6.32-2.75 6.42-6.12.06-1.71-.59-3.36-1.78-4.59a6.3 6.3 0 0 0-4.53-1.92h-4.35v7.02c0 .06-.05.11-.1.11h-4.33c-.06 0-.11-.05-.11-.1V10.11c0-.06.05-.11.11-.11h8.78c2.91 0 5.7 1.16 7.73 3.24" fill="#fff" fill-rule="evenodd"/></svg>