<svg xmlns="http://www.w3.org/2000/svg" viewBox="0 0 27.13 28.02"><path fill="#6c5feb" d="M18.45 18.46c.23 1.03.54 2.03.94 3l2.31 5.57c.23.61.82 1.01 1.47.99.21-.01.42-.06.61-.15 2.08-1.04 3.34-2.4 3.34-3.89 0-.36-.07-.72-.21-1.05l-.03-.07c-.89-2.03-4.14-3.68-8.43-4.4M.22 22.94c-.14.33-.21.69-.21 1.05 0 1.49 1.26 2.85 3.34 3.89.19.09.39.14.61.15a1.52 1.52 0 0 0 1.48-.99l2.31-5.57c.4-.97.73-1.97.96-3-4.29.72-7.52 2.36-8.42 4.38l-.04.09H.23v.01Z"/><path fill="#6c5feb" d="M18.3 11.19c3.05-.47 5.58-1.38 7.32-2.58l-.5 1.19a11 11 0 0 0 0 8.4l.49 1.18c-1.75-1.19-4.28-2.09-7.32-2.57h-.08c-1.54-.24-3.1-.36-4.66-.36s-3.11.11-4.65.35h-.08c-3.04.48-5.57 1.39-7.32 2.59l.49-1.19a11 11 0 0 0 0-8.4L1.5 8.61c1.74 1.2 4.27 2.11 7.32 2.58h.08c3.09.47 6.23.47 9.32.01h.08Z"/><path fill="#6c5feb" d="M23.79.15c2.08 1.04 3.33 2.4 3.33 3.88 0 .36-.08.71-.22 1.05l-.03.07c-.89 2.03-4.13 3.68-8.43 4.4q.345-1.545.96-3L21.71.98C22 .2 22.87-.2 23.66.09c.05.02.09.04.13.06M8.68 9.56q-.345-1.545-.96-3L5.41.99A1.495 1.495 0 0 0 3.47.1c-.05.02-.09.04-.13.06C1.26 1.19 0 2.55 0 4.04c0 .36.07.72.21 1.05s.04.1.04.1C1.16 7.2 4.4 8.84 8.69 9.57"/></svg>