<svg viewBox="0 0 162 162" fill="none" xmlns="http://www.w3.org/2000/svg"><g clip-path="url(#a)"><path fill="gold" d="M0 0h162v18H0z"/><path fill="#ffaf00" d="M0 36h162v18H0z"/><path fill="#ff8205" d="M0 72h162v18H0z"/><path fill="#fa500f" d="M0 108h162v18H0z"/><path fill="#e92700" d="M0 144h162v18H0z"/><path fill="#ffaf00" d="M0 18h162v18H0z"/><path fill="#ff8205" d="M0 54h162v18H0zm0 36h162v18H0z"/><path fill="#fa500f" d="M0 126h162v18H0z"/><g clip-path="url(#b)"><path fill="#fff" d="M36 36h18v18H36z"/><path fill="#f1370a" d="M0 108h18v18H0z"/><path fill="#e91e05" d="M0 126h18v18H0z"/><path fill="gold" d="M0 0h18v18H0z"/><path fill="#e10500" d="M0 144h18v18H0z"/><path fill="#febc03" d="M0 18h18v18H0z"/><path fill="#e91e05" d="M18 126h18v18H18z"/><path fill="gold" d="M18 0h18v18H18z"/><path fill="#e10500" d="M18 144h18v18H18z"/><path fill="#febc03" d="M18 18h18v18H18z"/><path fill="#e91e05" d="M36 126h18v18H36z"/><path fill="gold" d="M36 0h18v18H36z"/><path fill="#e10500" d="M36 144h18v18H36z"/><path fill="#febc03" d="M36 18h18v18H36z"/><path fill="#e91e05" d="M54 126h18v18H54z"/><path fill="gold" d="M54 0h18v18H54z"/><path fill="#e10500" d="M54 144h18v18H54z"/><path fill="#febc03" d="M54 18h18v18H54z"/><path fill="#e91e05" d="M72 126h18v18H72z"/><path fill="gold" d="M72 0h18v18H72z"/><path fill="#e10500" d="M72 144h18v18H72z"/><path fill="#febc03" d="M72 18h18v18H72z"/><path fill="#e91e05" d="M90 126h18v18H90z"/><path fill="gold" d="M90 0h18v18H90z"/><path fill="#e10500" d="M90 144h18v18H90z"/><path fill="#febc03" d="M90 18h18v18H90z"/><path fill="#e91e05" d="M108 126h18v18h-18z"/><path fill="gold" d="M108 0h18v18h-18z"/><path fill="#e10500" d="M108 144h18v18h-18z"/><path fill="#febc03" d="M108 18h18v18h-18z"/><path fill="#e91e05" d="M126 126h18v18h-18z"/><path fill="gold" d="M126 0h18v18h-18z"/><path fill="#e10500" d="M126 144h18v18h-18z"/><path fill="#febc03" d="M126 18h18v18h-18z"/><path fill="#e91e05" d="M144 126h18v18h-18z"/><path fill="gold" d="M144 0h18v18h-18z"/><path fill="#e10500" d="M144 144h18v18h-18z"/><path fill="#febc03" d="M144 18h18v18h-18z"/><path fill="#fa500f" d="M0 90h18v18H0zm126 0h18v18h-18z"/><path fill="#fb6b0c" d="M0 72h18v18H0zm126 0h18v18h-18z"/><path fill="#fc8609" d="M0 54h18v18H0zm126 0h18v18h-18z"/><path fill="#fda106" d="M0 36h18v18H0zm126 0h18v18h-18z"/><path fill="#fa500f" d="M18 90h18v18H18zm126 0h18v18h-18z"/><path fill="#f1370a" d="M144 108h18v18h-18z"/><path fill="#fb6b0c" d="M18 72h18v18H18zm126 0h18v18h-18z"/><path fill="#fc8609" d="M18 54h18v18H18zm126 0h18v18h-18z"/><path fill="#fda106" d="M18 36h18v18H18zm126 0h18v18h-18z"/><path fill="#fa500f" d="M54 90h18v18H54z"/><path fill="#f1370a" d="M72 108h18v18H72z"/><path fill="#fa500f" d="M90 90h18v18H90z"/><path fill="#fc8609" d="M72 54h18v18H72z"/><path fill="#fda106" d="M54 36h18v18H54zm18 0h18v18H72zm18 0h18v18H90z"/><path fill="#fff" d="M108 36h18v18h-18zM72 90h18v18H72zm-36 0h18v18H36zm72 0h18v18h-18zM36 54h36v18H36zm-18 54h54v18H18zm72 0h54v18H90zM36 72h90v18H36zm54-18h36v18H90z"/></g></g><defs><clipPath id="a"><path fill="#fff" d="M0 0h162v162H0z"/></clipPath><clipPath id="b"><path fill="#fff" d="M0 0h162v162H0z"/></clipPath></defs></svg>