<svg xmlns="http://www.w3.org/2000/svg" viewBox="0 0 529.92 529.92"><path d="M197.72 194.265v-31.67c3.07-.23 6.18-.39 9.34-.49 86.63-2.72 143.47 74.45 143.47 74.45s-61.39 85.25-127.21 85.25c-8.7.04-17.35-1.35-25.6-4.1v-96.05c33.72 4.07 40.51 18.97 60.78 52.78l45.1-38.03s-32.92-43.18-88.41-43.18c-6.03 0-11.8.42-17.47 1.03Zm0-104.64v47.33c3.1-.25 6.22-.44 9.34-.56 120.47-4.05 198.97 98.81 198.97 98.81s-90.15 109.63-184.07 109.63c-8.6 0-16.67-.8-24.23-2.14v29.24c6.47.82 13.18 1.31 20.18 1.31 87.4 0 150.6-44.63 211.81-97.46 10.15 8.12 51.7 27.9 60.23 36.56-58.2 48.7-193.81 87.98-270.71 87.98-7.19-.02-14.36-.4-21.52-1.12v41.09h332.2V89.625zm0 228.08v24.97c-80.84-14.4-103.28-98.44-103.28-98.44s38.82-43.01 103.28-49.98v27.4h-.13c-33.83-4.07-60.26 27.54-60.26 27.54s14.81 53.2 60.39 68.51m-143.57-77.1s47.91-70.71 143.58-78.01v-25.66C91.76 145.445 0 235.185 0 235.185s51.97 150.24 197.72 164v-27.25c-106.96-13.45-143.58-131.32-143.58-131.32Z" fill="#76b900" fill-rule="evenodd"/></svg>