<svg viewBox="0 0 17 25" fill="none" xmlns="http://www.w3.org/2000/svg"><path fill-rule="evenodd" clip-rule="evenodd" d="M4.405.102c.216.097.411.256.588.466.295.348.544.845.734 1.435a8.2 8.2 0 0 1 .362 1.91 4.6 4.6 0 0 1 2.05-.723l.05-.005c.87-.08 1.73.099 2.48.539q.151.09.297.193c.05-.647.172-1.289.36-1.868.19-.591.44-1.088.733-1.437.165-.202.366-.36.59-.466.256-.113.53-.134.795-.047.401.13.745.418 1.016.837.248.383.434.874.561 1.463.23 1.061.27 2.458.115 4.142l.053.045.026.022c.757.654 1.284 1.587 1.563 2.67.435 1.69.216 3.585-.534 4.646l-.018.023.002.004c.417.866.67 1.78.724 2.727l.002.034c.064 1.21-.2 2.428-.814 3.625l-.007.011.01.028c.472 1.314.62 2.638.438 3.96l-.006.045a.76.76 0 0 1-.262.48.59.59 0 0 1-.723.03.7.7 0 0 1-.186-.195.83.83 0 0 1-.116-.549c.167-1.174.01-2.35-.48-3.549a.82.82 0 0 1 .04-.7l.004-.008c.604-1.05.854-2.08.8-3.09-.046-.886-.325-1.755-.8-2.583a.8.8 0 0 1-.091-.546.74.74 0 0 1 .271-.461l.01-.007c.242-.18.466-.642.58-1.273a5.4 5.4 0 0 0-.096-2.243c-.205-.795-.58-1.459-1.105-1.912-.595-.516-1.383-.765-2.38-.693a.6.6 0 0 1-.373-.101.7.7 0 0 1-.259-.321c-.314-.756-.772-1.297-1.343-1.632a2.95 2.95 0 0 0-1.772-.377c-1.245.112-2.343.91-2.67 1.916a.74.74 0 0 1-.238.35.6.6 0 0 1-.372.133c-1.067.002-1.893.286-2.497.799-.522.443-.878 1.062-1.066 1.804a5.2 5.2 0 0 0-.068 2.143c.112.634.331 1.16.582 1.442l.008.008a.81.81 0 0 1 .11.892c-.36.707-.63 1.76-.674 2.773-.05 1.157.186 2.161.72 2.882l.015.021a.82.82 0 0 1 .095.784c-.576 1.405-.753 2.56-.562 3.469a.83.83 0 0 1-.089.548.66.66 0 0 1-.4.322.6.6 0 0 1-.485-.086.74.74 0 0 1-.295-.446C.165 23.248.33 21.923.881 20.43l.014-.04-.008-.013a5.3 5.3 0 0 1-.598-1.488l-.005-.021a7.4 7.4 0 0 1-.177-2.029 9.2 9.2 0 0 1 .622-2.943l.012-.03-.002-.002C.446 13.39.23 12.781.11 12.11l-.005-.028a6.9 6.9 0 0 1 .093-2.83C.46 8.213.974 7.32 1.733 6.675q.09-.079.186-.15c-.159-1.697-.119-3.103.112-4.17q.19-.887.562-1.463c.27-.418.614-.707 1.015-.838a1.1 1.1 0 0 1 .797.05m4.116 10.33c.936 0 1.8.355 2.446.971.63.599 1.005 1.403 1.005 2.205 0 1.009-.406 1.795-1.133 2.297-.62.426-1.45.633-2.403.633-1.009 0-1.87-.294-2.493-.834a2.75 2.75 0 0 1-.963-2.096c0-.804.398-1.61 1.056-2.212a3.68 3.68 0 0 1 2.485-.965m0 1.018a2.84 2.84 0 0 0-1.916.738c-.46.42-.722.95-.722 1.42 0 .487.21.943.61 1.29.455.394 1.124.622 1.943.622.8 0 1.473-.167 1.932-.484.463-.318.7-.78.7-1.428 0-.481-.246-1.012-.683-1.428a2.7 2.7 0 0 0-1.864-.73m.662 1.375.004.004c.12.172.095.42-.056.557l-.292.261v.507c0 .113-.04.221-.11.3a.35.35 0 0 1-.266.124.35.35 0 0 1-.265-.124.46.46 0 0 1-.11-.3v-.523l-.272-.247a.4.4 0 0 1-.087-.119.43.43 0 0 1 .035-.438.34.34 0 0 1 .237-.145c.092-.01.185.02.257.087l.215.195.22-.197a.323.323 0 0 1 .49.058m-5.04-2.181c.478 0 .867.443.867.99 0 .262-.09.513-.254.699a.82.82 0 0 1-.614.29.82.82 0 0 1-.613-.29 1.06 1.06 0 0 1-.254-.698c0-.262.09-.514.253-.7a.82.82 0 0 1 .615-.291m8.706 0c.48 0 .868.443.868.99 0 .262-.09.513-.254.699a.82.82 0 0 1-.614.29.82.82 0 0 1-.613-.29 1.06 1.06 0 0 1-.254-.698c0-.262.09-.514.253-.7a.82.82 0 0 1 .614-.291M3.94 1.477l-.003.002a.7.7 0 0 0-.285.27l-.005.008c-.138.214-.258.53-.348.945-.17.786-.216 1.853-.124 3.161q.647-.218 1.404-.269l.01-.001.02-.039q.067-.14.147-.271c.123-.876.022-1.923-.253-2.778-.134-.413-.297-.738-.453-.923a.7.7 0 0 0-.107-.103zm9.174.046h-.002a.7.7 0 0 0-.107.103c-.156.185-.32.511-.453.925-.29.902-.387 2.018-.23 2.923l.058.11.008.016h.03c.497 0 .99.081 1.466.24.086-1.277.038-2.32-.128-3.093-.09-.414-.21-.73-.349-.945l-.004-.007a.7.7 0 0 0-.285-.271z" fill="#000"/></svg>