<svg xmlns="http://www.w3.org/2000/svg" viewBox="0 0 36 36"><path fill="#111" d="M0 0h36v36H0z"/><path fill="#fff" fill-rule="evenodd" clip-rule="evenodd" d="M18 2.125c.483 0 .875.392.875.875v7.886l8.506-8.505A.876.876 0 0 1 28.875 3v9.1h2.875l.09.005a.875.875 0 0 1 .785.87v12.526a.876.876 0 0 1-.875.875h-2.875V33a.875.875 0 0 1-1.494.619l-8.506-8.506V33a.875.875 0 1 1-1.75 0v-7.887l-8.506 8.506a.876.876 0 0 1-1.494-.62v-6.623H4.25a.876.876 0 0 1-.875-.875V12.975c0-.483.392-.875.875-.875h2.875V3a.876.876 0 0 1 1.494-.62l8.506 8.506V3c0-.483.392-.875.875-.875M8.875 22.146v8.74l8.25-8.25v-7.708zm10 .49 8.25 8.25v-8.74l-8.25-7.219zm-13.75 1.99h2V21.75l.005-.094a.88.88 0 0 1 .294-.564l8.275-7.242H8.203a.9.9 0 0 1-.406 0H5.125zm23.451-3.535c.19.167.299.407.299.659v2.876h2V13.85h-2.672a.9.9 0 0 1-.406 0H20.3zm-19.701-8.99h6.987L8.875 5.112zm11.263 0h6.987V5.112z"/></svg>