<svg xmlns="http://www.w3.org/2000/svg" viewBox="0 0 44 44"><path d="M0 0h44v44H0z"/><path d="m33.165 12.2-.61 2.18c-.03.11-.15.18-.27.15l-10.2-3.03a.24.24 0 0 0-.2.04l-10.11 8.04s-.07.04-.1.05l-6.02.92c-.11.02-.19.12-.18.23l.03.34c0 .11.1.19.21.2l6.99.18h.08l5.16-2.73c.07-.04.16-.03.23.01l3.66 2.58c.06.04.09.11.09.18l-.03 3.43s.01.09.04.12l5.15 7.32c.04.06.11.09.18.09h1.63c.12 0 .21-.1.21-.21 0-.04 0-.07-.02-.1l-3.67-6.89a.22.22 0 0 1 0-.21l1.91-3.04s.05-.06.08-.08l6.84-3.44c.07-.03.15-.03.22.01l1.95 1.29s.08.04.12.04h1.77c.12 0 .21-.09.22-.21 0-.04-.01-.08-.04-.12l-4.93-7.4c-.07-.1-.2-.13-.3-.06q-.06.045-.09.12" fill="#fff"/></svg>