<?xml version="1.0" encoding="UTF-8"?>
<svg id="_레이어_2" data-name="레이어 2" xmlns="http://www.w3.org/2000/svg" viewBox="0 0 27 25.12">
  <defs>
    <style>
      .cls-1 {
        fill: #fc4c02;
      }

      .cls-2 {
        fill: #ef2cc1;
      }

      .cls-3 {
        fill: #caaef5;
      }
    </style>
  </defs>
  <g id="_레이어_1-2" data-name="레이어 1">
    <path class="cls-2" d="M26.09,3.37C24.23.15,20.1-.95,16.87.9c-2,1.14-3.27,3.23-3.37,5.53h6.74v.59h-6.74c.04,1.08.35,2.14.9,3.07,1.86,3.22,5.99,4.32,9.22,2.46,3.22-1.85,4.33-5.96,2.48-9.17,0,0,0-.01-.01-.02"/>
    <path class="cls-3" d="M.9,3.37C-.95,6.58.14,10.69,3.36,12.55c0,0,.01,0,.02,0,2,1.16,4.45,1.21,6.49.14l-3.36-5.83.5-.29,3.37,5.82c.92-.58,1.68-1.37,2.22-2.31,1.86-3.21.76-7.32-2.45-9.18,0,0-.01,0-.02-.01C6.89-.96,2.77.15.9,3.37"/>
    <path class="cls-1" d="M13.5,25.12c3.73,0,6.75-3.01,6.75-6.73,0-2.3-1.17-4.45-3.12-5.68l-3.38,5.82-.5-.29,3.37-5.82c-.96-.5-2.03-.76-3.12-.76-3.73,0-6.75,3.01-6.75,6.73s3.02,6.73,6.75,6.73"/>
  </g>
</svg>