<svg xmlns="http://www.w3.org/2000/svg" viewBox="0 0 21.77 24.84"><path fill="#669df6" d="M21.58 14.91a.995.995 0 0 0-1.4-.22l-9.29 6.86v.29a.997.997 0 0 1 1.25.66.997.997 0 0 1-1.25 1.25v.05c.22 0 .43-.06.6-.19l9.88-7.3c.44-.33.54-.95.21-1.4"/><path fill="#aecbfa" d="M10.89 23.75a.997.997 0 0 1-1.25-.66.997.997 0 0 1 1.25-1.25v-.29L1.6 14.69a.996.996 0 0 0-1.4.22.996.996 0 0 0 .21 1.4l9.89 7.3c.17.12.38.19.59.19z"/><path fill="#4285f4" d="M10.89 20.84c-1.1 0-2 .9-2 2s.9 2 2 2 2-.9 2-2-.9-2-2-2m0 2.91c-.55 0-1-.45-1-1s.45-1 1-1 1 .45 1 1v.05c-.03.53-.47.95-1 .95"/><path fill="#aecbfa" d="M2.89 4.52c-.55 0-1-.45-1-1V1.01c0-.55.44-1.01 1-1.01s1 .45 1 1v2.51c0 .55-.45 1-1 1"/><circle fill="#aecbfa" cx="2.86" cy="12.38" r="1.01"/><circle fill="#aecbfa" cx="2.86" cy="9.43" r="1.01"/><circle fill="#aecbfa" cx="2.86" cy="6.47" r="1.01"/><path fill="#4285f4" d="M18.89 7.45c-.55 0-1-.45-1-1V3.93c0-.55.45-1 1-1s1 .45 1 1v2.52c0 .55-.45 1-1 1"/><circle fill="#4285f4" cx="18.92" cy="12.39" r="1.01"/><circle fill="#4285f4" cx="18.92" cy="9.4" r="1.01"/><circle fill="#4285f4" cx="18.92" cy="1.01" r="1.01"/><path fill="#669df6" d="M10.89 16.38c-.55 0-1-.45-1-1v-2.54c0-.55.45-1 1-1s1 .45 1 1v2.54c0 .55-.45 1-1 1"/><circle fill="#669df6" cx="10.89" cy="18.31" r="1.01"/><circle fill="#669df6" cx="10.89" cy="9.89" r="1.01"/><circle fill="#669df6" cx="10.89" cy="6.94" r="1.01"/><path fill="#4285f4" d="M14.89 10.43c-.55 0-1-.45-1-1V6.92c0-.55.45-1 1-1s1 .45 1 1v2.51c0 .55-.45 1-1 1"/><circle fill="#4285f4" cx="14.91" cy="3.96" r="1.01"/><circle fill="#4285f4" cx="14.91" cy="15.3" r="1.01"/><circle fill="#4285f4" cx="14.91" cy="12.35" r="1.01"/><circle fill="#aecbfa" cx="6.87" cy="15.3" r="1.01"/><circle fill="#aecbfa" cx="6.87" cy="6.94" r="1.01"/><circle fill="#aecbfa" cx="6.87" cy="3.96" r="1.01"/><path fill="#aecbfa" d="M6.89 13.38c-.55 0-1-.45-1-1V9.84c0-.55.45-1 1-1s1 .45 1 1v2.54c0 .55-.45 1-1 1"/></svg>