<svg xmlns="http://www.w3.org/2000/svg" viewBox="0 0 33.33 32"><path d="M0 0h33.33v32H0z"/><path d="m12.87 20.54 11.08-8.19c.54-.4 1.32-.24 1.58.38 1.36 3.29.75 7.24-1.96 9.95s-6.48 3.31-9.93 1.95l-3.77 1.75c5.4 3.7 11.96 2.78 16.06-1.32 3.25-3.25 4.26-7.69 3.32-11.69-1.36-5.87.34-8.22 3.82-13.02.08-.11.16-.23.25-.35l-4.58 4.59-15.88 15.95m-2.27 1.99c-3.88-3.71-3.21-9.45.1-12.76 2.45-2.45 6.45-3.45 9.95-1.98l3.76-1.74c-.68-.49-1.55-1.02-2.54-1.39-4.65-1.91-9.99-.83-13.55 2.73-3.52 3.52-4.62 8.94-2.72 13.56 1.42 3.45-.91 5.9-3.25 8.36-.83.87-1.66 1.75-2.34 2.67l10.58-9.47" fill="#fff"/></svg>